<svg width="32" height="32" viewBox="0 0 32 32" fill="none" xmlns="http://www.w3.org/2000/svg">  
  <rect width="32" height="32" rx="8" fill="#2563eb"/>  
  <path d="M16 6c-2.2 0-4.2 1.1-5.4 2.8C10 8.6 9.6 8.4 9.2 8.4c-1.7 0-3.2 1.4-3.2 3.2 0 1.1 0.6 2.1 1.4 2.6-0.2 0.6-0.4 1.2-0.4 1.8 0 3.3 2.7 6 6 6h4.4c0.9 0 1.7-0.3 2.4-0.8C21.4 22.3 23 23 24.8 23c1.7 0 3.2-1.4 3.2-3.2 0-1.1-0.6-2.1-1.4-2.6 0.2-0.6 0.4-1.2 0.4-1.8 0-3.3-2.7-6-6-6h-0.6C19.8 7.1 18 6 16 6z" fill="white" fillOpacity="0.9"/>
  <circle cx="13" cy="14" r="1.5" fill="#2563eb"/>
  <circle cx="19" cy="14" r="1.5" fill="#2563eb"/>
  <path d="M14 18h4c0 1.1-0.9 2-2 2s-2-0.9-2-2z" fill="#2563eb"/>
</svg>